<?xml version="1.0" encoding="UTF-8" standalone="no"?>
<!-- Created with Inkscape (http://www.inkscape.org/) -->

<svg
   xmlns:dc="http://purl.org/dc/elements/1.1/"
   xmlns:cc="http://creativecommons.org/ns#"
   xmlns:rdf="http://www.w3.org/1999/02/22-rdf-syntax-ns#"
   xmlns:svg="http://www.w3.org/2000/svg"
   xmlns="http://www.w3.org/2000/svg"
   xmlns:sodipodi="http://sodipodi.sourceforge.net/DTD/sodipodi-0.dtd"
   xmlns:inkscape="http://www.inkscape.org/namespaces/inkscape"
   width="744.09448819"
   height="1052.3622047"
   id="svg2"
   version="1.1"
   inkscape:version="0.48.5 r10040"
   sodipodi:docname="frontpagemodel.svg">
  <defs
     id="defs4">
    <marker
       inkscape:stockid="Arrow2Lend"
       orient="auto"
       refY="0.0"
       refX="0.0"
       id="Arrow2Lend"
       style="overflow:visible;">
      <path
         id="path4150"
         style="fill-rule:evenodd;stroke-width:0.62500000;stroke-linejoin:round;"
         d="M 8.7185878,4.0337352 L -2.2072895,0.016013256 L 8.7185884,-4.0017078 C 6.9730900,-1.6296469 6.9831476,1.6157441 8.7185878,4.0337352 z "
         transform="scale(1.1) rotate(180) translate(1,0)" />
    </marker>
    <marker
       inkscape:stockid="Arrow2Lend"
       orient="auto"
       refY="0"
       refX="0"
       id="Arrow2Lend-4"
       style="overflow:visible">
      <path
         inkscape:connector-curvature="0"
         id="path4150-5"
         style="fill-rule:evenodd;stroke-width:0.625;stroke-linejoin:round"
         d="M 8.7185878,4.0337352 -2.2072895,0.01601326 8.7185884,-4.0017078 c -1.7454984,2.3720609 -1.7354408,5.6174519 -6e-7,8.035443 z"
         transform="matrix(-1.1,0,0,-1.1,-1.1,0)" />
    </marker>
    <marker
       inkscape:stockid="Arrow2Lend"
       orient="auto"
       refY="0"
       refX="0"
       id="Arrow2Lend-4-1"
       style="overflow:visible">
      <path
         inkscape:connector-curvature="0"
         id="path4150-5-7"
         style="fill-rule:evenodd;stroke-width:0.625;stroke-linejoin:round"
         d="M 8.7185878,4.0337352 -2.2072895,0.01601326 8.7185884,-4.0017078 c -1.7454984,2.3720609 -1.7354408,5.6174519 -6e-7,8.035443 z"
         transform="matrix(-1.1,0,0,-1.1,-1.1,0)" />
    </marker>
    <marker
       inkscape:stockid="Arrow2Lend"
       orient="auto"
       refY="0"
       refX="0"
       id="Arrow2Lend-1"
       style="overflow:visible">
      <path
         inkscape:connector-curvature="0"
         id="path4150-52"
         style="fill-rule:evenodd;stroke-width:0.625;stroke-linejoin:round"
         d="M 8.7185878,4.0337352 -2.2072895,0.01601326 8.7185884,-4.0017078 c -1.7454984,2.3720609 -1.7354408,5.6174519 -6e-7,8.035443 z"
         transform="matrix(-1.1,0,0,-1.1,-1.1,0)" />
    </marker>
    <marker
       inkscape:stockid="Arrow2Lend"
       orient="auto"
       refY="0"
       refX="0"
       id="Arrow2Lend-6"
       style="overflow:visible">
      <path
         inkscape:connector-curvature="0"
         id="path4150-1"
         style="fill-rule:evenodd;stroke-width:0.625;stroke-linejoin:round"
         d="M 8.7185878,4.0337352 -2.2072895,0.01601326 8.7185884,-4.0017078 c -1.7454984,2.3720609 -1.7354408,5.6174519 -6e-7,8.035443 z"
         transform="matrix(-1.1,0,0,-1.1,-1.1,0)" />
    </marker>
    <marker
       inkscape:stockid="Arrow2Lend"
       orient="auto"
       refY="0"
       refX="0"
       id="Arrow2Lend-4-2"
       style="overflow:visible">
      <path
         inkscape:connector-curvature="0"
         id="path4150-5-3"
         style="fill-rule:evenodd;stroke-width:0.625;stroke-linejoin:round"
         d="M 8.7185878,4.0337352 -2.2072895,0.01601326 8.7185884,-4.0017078 c -1.7454984,2.3720609 -1.7354408,5.6174519 -6e-7,8.035443 z"
         transform="matrix(-1.1,0,0,-1.1,-1.1,0)" />
    </marker>
    <marker
       inkscape:stockid="Arrow2Lend"
       orient="auto"
       refY="0"
       refX="0"
       id="Arrow2Lend-2"
       style="overflow:visible">
      <path
         inkscape:connector-curvature="0"
         id="path4150-16"
         style="fill-rule:evenodd;stroke-width:0.625;stroke-linejoin:round"
         d="M 8.7185878,4.0337352 -2.2072895,0.01601326 8.7185884,-4.0017078 c -1.7454984,2.3720609 -1.7354408,5.6174519 -6e-7,8.035443 z"
         transform="matrix(-1.1,0,0,-1.1,-1.1,0)" />
    </marker>
    <marker
       inkscape:stockid="Arrow2Lend"
       orient="auto"
       refY="0"
       refX="0"
       id="marker5093"
       style="overflow:visible">
      <path
         inkscape:connector-curvature="0"
         id="path5095"
         style="fill-rule:evenodd;stroke-width:0.625;stroke-linejoin:round"
         d="M 8.7185878,4.0337352 -2.2072895,0.01601326 8.7185884,-4.0017078 c -1.7454984,2.3720609 -1.7354408,5.6174519 -6e-7,8.035443 z"
         transform="matrix(-1.1,0,0,-1.1,-1.1,0)" />
    </marker>
    <marker
       inkscape:stockid="Arrow2Lend"
       orient="auto"
       refY="0"
       refX="0"
       id="Arrow2Lend-7"
       style="overflow:visible">
      <path
         inkscape:connector-curvature="0"
         id="path4150-6"
         style="fill-rule:evenodd;stroke-width:0.625;stroke-linejoin:round"
         d="M 8.7185878,4.0337352 -2.2072895,0.01601326 8.7185884,-4.0017078 c -1.7454984,2.3720609 -1.7354408,5.6174519 -6e-7,8.035443 z"
         transform="matrix(-1.1,0,0,-1.1,-1.1,0)" />
    </marker>
    <marker
       inkscape:stockid="Arrow2Lend"
       orient="auto"
       refY="0"
       refX="0"
       id="Arrow2Lend-8"
       style="overflow:visible">
      <path
         inkscape:connector-curvature="0"
         id="path4150-9"
         style="fill-rule:evenodd;stroke-width:0.625;stroke-linejoin:round"
         d="M 8.7185878,4.0337352 -2.2072895,0.01601326 8.7185884,-4.0017078 c -1.7454984,2.3720609 -1.7354408,5.6174519 -6e-7,8.035443 z"
         transform="matrix(-1.1,0,0,-1.1,-1.1,0)" />
    </marker>
    <marker
       inkscape:stockid="Arrow2Lend"
       orient="auto"
       refY="0"
       refX="0"
       id="Arrow2Lend-79"
       style="overflow:visible">
      <path
         inkscape:connector-curvature="0"
         id="path4150-54"
         style="fill-rule:evenodd;stroke-width:0.625;stroke-linejoin:round"
         d="M 8.7185878,4.0337352 -2.2072895,0.01601326 8.7185884,-4.0017078 c -1.7454984,2.3720609 -1.7354408,5.6174519 -6e-7,8.035443 z"
         transform="matrix(-1.1,0,0,-1.1,-1.1,0)" />
    </marker>
    <marker
       inkscape:stockid="Arrow2Lend"
       orient="auto"
       refY="0"
       refX="0"
       id="marker5176"
       style="overflow:visible">
      <path
         inkscape:connector-curvature="0"
         id="path5178"
         style="fill-rule:evenodd;stroke-width:0.625;stroke-linejoin:round"
         d="M 8.7185878,4.0337352 -2.2072895,0.01601326 8.7185884,-4.0017078 c -1.7454984,2.3720609 -1.7354408,5.6174519 -6e-7,8.035443 z"
         transform="matrix(-1.1,0,0,-1.1,-1.1,0)" />
    </marker>
    <marker
       inkscape:stockid="Arrow2Lend"
       orient="auto"
       refY="0"
       refX="0"
       id="Arrow2Lend-23"
       style="overflow:visible">
      <path
         inkscape:connector-curvature="0"
         id="path4150-3"
         style="fill-rule:evenodd;stroke-width:0.625;stroke-linejoin:round"
         d="M 8.7185878,4.0337352 -2.2072895,0.01601326 8.7185884,-4.0017078 c -1.7454984,2.3720609 -1.7354408,5.6174519 -6e-7,8.035443 z"
         transform="matrix(-1.1,0,0,-1.1,-1.1,0)" />
    </marker>
    <marker
       inkscape:stockid="Arrow2Lend"
       orient="auto"
       refY="0"
       refX="0"
       id="marker5211"
       style="overflow:visible">
      <path
         inkscape:connector-curvature="0"
         id="path5213"
         style="fill-rule:evenodd;stroke-width:0.625;stroke-linejoin:round"
         d="M 8.7185878,4.0337352 -2.2072895,0.01601326 8.7185884,-4.0017078 c -1.7454984,2.3720609 -1.7354408,5.6174519 -6e-7,8.035443 z"
         transform="matrix(-1.1,0,0,-1.1,-1.1,0)" />
    </marker>
    <marker
       inkscape:stockid="Arrow2Lend"
       orient="auto"
       refY="0"
       refX="0"
       id="Arrow2Lend-4-13"
       style="overflow:visible">
      <path
         inkscape:connector-curvature="0"
         id="path4150-5-8"
         style="fill-rule:evenodd;stroke-width:0.625;stroke-linejoin:round"
         d="M 8.7185878,4.0337352 -2.2072895,0.01601326 8.7185884,-4.0017078 c -1.7454984,2.3720609 -1.7354408,5.6174519 -6e-7,8.035443 z"
         transform="matrix(-1.1,0,0,-1.1,-1.1,0)" />
    </marker>
    <marker
       inkscape:stockid="Arrow2Lend"
       orient="auto"
       refY="0"
       refX="0"
       id="Arrow2Lend-4-4"
       style="overflow:visible">
      <path
         inkscape:connector-curvature="0"
         id="path4150-5-2"
         style="fill-rule:evenodd;stroke-width:0.625;stroke-linejoin:round"
         d="M 8.7185878,4.0337352 -2.2072895,0.01601326 8.7185884,-4.0017078 c -1.7454984,2.3720609 -1.7354408,5.6174519 -6e-7,8.035443 z"
         transform="matrix(-1.1,0,0,-1.1,-1.1,0)" />
    </marker>
    <marker
       inkscape:stockid="Arrow2Lend"
       orient="auto"
       refY="0"
       refX="0"
       id="Arrow2Lend-4-7"
       style="overflow:visible">
      <path
         inkscape:connector-curvature="0"
         id="path4150-5-9"
         style="fill-rule:evenodd;stroke-width:0.625;stroke-linejoin:round"
         d="M 8.7185878,4.0337352 -2.2072895,0.01601326 8.7185884,-4.0017078 c -1.7454984,2.3720609 -1.7354408,5.6174519 -6e-7,8.035443 z"
         transform="matrix(-1.1,0,0,-1.1,-1.1,0)" />
    </marker>
    <marker
       inkscape:stockid="Arrow2Lend"
       orient="auto"
       refY="0"
       refX="0"
       id="Arrow2Lend-4-7-3"
       style="overflow:visible">
      <path
         inkscape:connector-curvature="0"
         id="path4150-5-9-2"
         style="fill-rule:evenodd;stroke-width:0.625;stroke-linejoin:round"
         d="M 8.7185878,4.0337352 -2.2072895,0.01601326 8.7185884,-4.0017078 c -1.7454984,2.3720609 -1.7354408,5.6174519 -6e-7,8.035443 z"
         transform="matrix(-1.1,0,0,-1.1,-1.1,0)" />
    </marker>
  </defs>
  <sodipodi:namedview
     id="base"
     pagecolor="#ffffff"
     bordercolor="#666666"
     borderopacity="1.0"
     inkscape:pageopacity="0.0"
     inkscape:pageshadow="2"
     inkscape:zoom="0.7"
     inkscape:cx="70.739557"
     inkscape:cy="663.1767"
     inkscape:document-units="px"
     inkscape:current-layer="layer1"
     showgrid="false"
     inkscape:window-width="1600"
     inkscape:window-height="837"
     inkscape:window-x="-8"
     inkscape:window-y="-8"
     inkscape:window-maximized="1" />
  <metadata
     id="metadata7">
    <rdf:RDF>
      <cc:Work
         rdf:about="">
        <dc:format>image/svg+xml</dc:format>
        <dc:type
           rdf:resource="http://purl.org/dc/dcmitype/StillImage" />
        <dc:title />
      </cc:Work>
    </rdf:RDF>
  </metadata>
  <g
     inkscape:label="Layer 1"
     inkscape:groupmode="layer"
     id="layer1">
    <path
       style="fill:none;stroke:#000000;stroke-width:2;stroke-linecap:butt;stroke-linejoin:miter;stroke-miterlimit:4;stroke-opacity:1;stroke-dasharray:none;marker-end:url(#Arrow2Lend-4)"
       d="m 65.367244,257.03595 c 0,0 -37.97998,-15.78727 -27.568368,-36.71192 14.602849,-29.34802 33.547327,-4.69315 43.358866,2.49663"
       id="path4779"
       inkscape:connector-curvature="0"
       sodipodi:nodetypes="csc" />
    <path
       style="fill:none;stroke:#000000;stroke-width:2;stroke-linecap:butt;stroke-linejoin:miter;stroke-miterlimit:4;stroke-opacity:1;stroke-dasharray:4,8;marker-mid:none;marker-end:url(#Arrow2Lend);stroke-dashoffset:0"
       d="m 364.47099,407.38779 c 0,0 99.86843,6.84699 193.08092,-107.43331"
       id="path3175-7-4"
       inkscape:connector-curvature="0"
       sodipodi:nodetypes="cc" />
    <path
       style="fill:none;stroke:#000000;stroke-width:2;stroke-linecap:butt;stroke-linejoin:miter;stroke-miterlimit:4;stroke-opacity:1;stroke-dasharray:none;marker-end:url(#Arrow2Lend-4)"
       d="m 404.94589,406.63015 c 0,0 37.97998,15.78727 27.56837,36.71192 -14.60285,29.34802 -33.54733,4.69315 -43.35887,-2.49663"
       id="path4779-2"
       inkscape:connector-curvature="0"
       sodipodi:nodetypes="csc" />
    <path
       style="fill:none;stroke:#000000;stroke-width:2;stroke-linecap:butt;stroke-linejoin:miter;stroke-miterlimit:4;stroke-opacity:1;stroke-dasharray:4,8;marker-mid:none;marker-end:url(#Arrow2Lend);stroke-dashoffset:0"
       d="m 591.9208,259.57306 c 0,0 -99.86843,-6.84699 -193.08092,107.43331"
       id="path3175-7-4-1"
       inkscape:connector-curvature="0"
       sodipodi:nodetypes="cc" />
    <path
       style="fill:none;stroke:#000000;stroke-width:2;stroke-linecap:butt;stroke-linejoin:miter;stroke-miterlimit:4;stroke-opacity:1;stroke-dasharray:none;marker-mid:none;marker-end:url(#Arrow2Lend)"
       d="m 348.01062,405.55526 c 0,0 -99.86843,6.84699 -193.08092,-107.43331"
       id="path3175-7-4-3"
       inkscape:connector-curvature="0"
       sodipodi:nodetypes="cc" />
    <path
       style="fill:none;stroke:#000000;stroke-width:2;stroke-linecap:butt;stroke-linejoin:miter;stroke-miterlimit:4;stroke-opacity:1;stroke-dasharray:none;marker-mid:none;marker-end:url(#Arrow2Lend)"
       d="m 120.56081,257.74053 c 0,0 99.86843,-6.84699 193.08092,107.43331"
       id="path3175-7-4-1-1"
       inkscape:connector-curvature="0"
       sodipodi:nodetypes="cc" />
    <path
       style="fill:none;stroke:#000000;stroke-width:2;stroke-linecap:butt;stroke-linejoin:miter;stroke-miterlimit:4;stroke-opacity:1;stroke-dasharray:4,8;marker-mid:none;marker-end:url(#Arrow2Lend);stroke-dashoffset:0"
       d="m 360.71464,401.91985 c 0,0 55.86388,83.0651 3.50048,220.92963"
       id="path3175-7-4-3-4"
       inkscape:connector-curvature="0"
       sodipodi:nodetypes="cc" />
    <path
       style="fill:none;stroke:#000000;stroke-width:2;stroke-linecap:butt;stroke-linejoin:miter;stroke-miterlimit:4;stroke-opacity:1;stroke-dasharray:4,8;marker-mid:none;marker-end:url(#Arrow2Lend);stroke-dashoffset:0"
       d="m 346.42823,672.80452 c 0,0 -55.86388,-83.0651 -3.50048,-220.92963"
       id="path3175-7-4-1-1-1"
       inkscape:connector-curvature="0"
       sodipodi:nodetypes="cc" />
    <path
       sodipodi:type="arc"
       style="fill:#d40000;stroke-width:1;stroke-linecap:butt;stroke-miterlimit:4;stroke-dasharray:3, 3;stroke-dashoffset:2.4"
       id="path2995-1"
       sodipodi:cx="428.30469"
       sodipodi:cy="470.51431"
       sodipodi:rx="137.38075"
       sodipodi:ry="165.66502"
       d="m 565.68544,470.51431 a 137.38075,165.66502 0 1 1 -274.76151,0 137.38075,165.66502 0 1 1 274.76151,0 z"
       transform="matrix(0.363952,0,0,0.30181386,199.74825,257.53151)" />
    <path
       style="fill:none;stroke:#000000;stroke-width:2;stroke-linecap:butt;stroke-linejoin:miter;stroke-miterlimit:4;stroke-opacity:1;stroke-dasharray:4,8;marker-end:url(#Arrow2Lend-4);stroke-dashoffset:0"
       d="m 366.93126,719.09176 c 0,0 5.31781,40.78527 -18.00928,42.23088 -32.71755,2.02757 -20.83804,-26.70626 -19.51729,-38.7982"
       id="path4779-2-7-7"
       inkscape:connector-curvature="0"
       sodipodi:nodetypes="csc" />
    <path
       style="fill:none;stroke:#000000;stroke-width:2;stroke-linecap:butt;stroke-linejoin:miter;stroke-miterlimit:4;stroke-opacity:1;stroke-dasharray:4,8;marker-end:url(#Arrow2Lend-4);stroke-dashoffset:0"
       d="m 628.10293,226.89695 c 0,0 32.66216,-24.99798 45.57763,-5.51894 18.11471,27.32045 -12.70927,31.39941 -23.84157,36.30156"
       id="path4779-3"
       inkscape:connector-curvature="0"
       sodipodi:nodetypes="csc" />
    <path
       sodipodi:type="arc"
       style="fill:#0044aa;stroke-width:1;stroke-linecap:butt;stroke-miterlimit:4;stroke-dasharray:3, 3;stroke-dashoffset:2.4"
       id="path2995-1-7-4-0-9"
       sodipodi:cx="428.30469"
       sodipodi:cy="470.51431"
       sodipodi:rx="137.38075"
       sodipodi:ry="165.66502"
       d="m 565.68544,470.51431 a 137.38075,165.66502 0 1 1 -274.76151,0 137.38075,165.66502 0 1 1 274.76151,0 z"
       transform="matrix(0.363952,0,0,0.30181386,199.74825,534.35434)" />
    <path
       sodipodi:type="arc"
       style="fill:#0044aa;stroke-width:1;stroke-linecap:butt;stroke-miterlimit:4;stroke-dasharray:3, 3;stroke-dashoffset:2.4"
       id="path2995-1-7-4-0-9-4-8-8-2"
       sodipodi:cx="428.30469"
       sodipodi:cy="470.51431"
       sodipodi:rx="137.38075"
       sodipodi:ry="165.66502"
       d="m 565.68544,470.51431 a 137.38075,165.66502 0 1 1 -274.76151,0 137.38075,165.66502 0 1 1 274.76151,0 z"
       transform="matrix(0.363952,0,0,0.30181386,441.48542,122.91685)" />
    <path
       sodipodi:type="arc"
       style="fill:#008000;stroke-width:1;stroke-linecap:butt;stroke-miterlimit:4;stroke-dasharray:3, 3;stroke-dashoffset:2.4"
       id="path2995"
       sodipodi:cx="428.30469"
       sodipodi:cy="470.51431"
       sodipodi:rx="137.38075"
       sodipodi:ry="165.66502"
       d="m 565.68544,470.51431 a 137.38075,165.66502 0 1 1 -274.76151,0 137.38075,165.66502 0 1 1 274.76151,0 z"
       transform="matrix(0.363952,0,0,0.30181386,-41.988924,122.91685)" />
    <text
       xml:space="preserve"
       style="font-size:20px;font-style:normal;font-weight:normal;line-height:125%;letter-spacing:0px;word-spacing:0px;fill:#000000;fill-opacity:1;stroke:none;font-family:Sans"
       x="349.46909"
       y="95.698563"
       id="text4113"
       sodipodi:linespacing="125%"
       transform="matrix(0.81666671,0.57710959,-0.57710959,0.81666671,0,0)"><tspan
         sodipodi:role="line"
         id="tspan4115"
         x="349.46909"
         y="95.698563"
         style="font-size:30px">0.6</tspan></text>
    <text
       xml:space="preserve"
       style="font-size:20px;font-style:normal;font-weight:normal;line-height:125%;letter-spacing:0px;word-spacing:0px;fill:#000000;fill-opacity:1;stroke:none;font-family:Sans"
       x="375.96466"
       y="195.7905"
       id="text4113-1"
       sodipodi:linespacing="125%"
       transform="matrix(0.81666671,0.57710959,-0.57710959,0.81666671,0,0)"><tspan
         sodipodi:role="line"
         id="tspan4115-7"
         x="375.96466"
         y="195.7905"
         style="font-size:30px">0.3</tspan></text>
    <text
       xml:space="preserve"
       style="font-size:20px;font-style:normal;font-weight:normal;line-height:125%;letter-spacing:0px;word-spacing:0px;fill:#000000;fill-opacity:1;stroke:none;font-family:Sans"
       x="-164.41064"
       y="157.6519"
       id="text4113-1-4"
       sodipodi:linespacing="125%"
       transform="matrix(0.61162909,-0.82907987,0.77876479,0.57934097,0,0)"><tspan
         sodipodi:role="line"
         id="tspan4115-7-0"
         x="-164.41064"
         y="157.6519"
         style="font-size:30px">0.4</tspan></text>
    <text
       xml:space="preserve"
       style="font-size:20px;font-style:normal;font-weight:normal;line-height:125%;letter-spacing:0px;word-spacing:0px;fill:#000000;fill-opacity:1;stroke:none;font-family:Sans"
       x="-119.16034"
       y="660.40643"
       id="text4113-1-4-9"
       sodipodi:linespacing="125%"
       transform="matrix(0.61162909,-0.82907987,0.77876479,0.57934097,0,0)"><tspan
         sodipodi:role="line"
         id="tspan4115-7-0-4"
         x="-119.16034"
         y="660.40643"
         style="font-size:30px">0.7</tspan></text>
    <flowRoot
       xml:space="preserve"
       id="flowRoot4180"
       style="font-size:20px;font-style:normal;font-weight:normal;line-height:125%;letter-spacing:0px;word-spacing:0px;fill:#ffffff;fill-opacity:1;stroke:none;font-family:Sans"
       transform="translate(41.999279,-109.5544)"><flowRegion
         id="flowRegion4182"><rect
           id="rect4184"
           width="95.714287"
           height="68.571426"
           x="47.142857"
           y="352.36218"
           style="fill:#ffffff;fill-opacity:1" /></flowRegion><flowPara
         id="flowPara4186">a: 0.1</flowPara><flowPara
         id="flowPara4188">b: 0.9</flowPara></flowRoot>    <flowRoot
       xml:space="preserve"
       id="flowRoot4180-8"
       style="font-size:20px;font-style:normal;font-weight:normal;line-height:125%;letter-spacing:0px;word-spacing:0px;fill:#ffffff;fill-opacity:1;stroke:none;font-family:Sans"
       transform="translate(283.53782,25.018211)"><flowRegion
         id="flowRegion4182-8"><rect
           id="rect4184-2"
           width="95.714287"
           height="68.571426"
           x="47.142857"
           y="352.36218"
           style="fill:#ffffff;fill-opacity:1" /></flowRegion><flowPara
         id="flowPara4186-4">a: 0.1</flowPara><flowPara
         id="flowPara4188-5">b: 0.9</flowPara></flowRoot>    <flowRoot
       xml:space="preserve"
       id="flowRoot4180-8-5"
       style="font-size:20px;font-style:normal;font-weight:normal;line-height:125%;letter-spacing:0px;word-spacing:0px;fill:#ffffff;fill-opacity:1;stroke:none;font-family:Sans"
       transform="translate(538.91737,-105.016)"><flowRegion
         id="flowRegion4182-8-1"><rect
           id="rect4184-2-7"
           width="95.714287"
           height="68.571426"
           x="47.142857"
           y="352.36218"
           style="fill:#ffffff;fill-opacity:1" /></flowRegion><flowPara
         id="flowPara4188-5-1"
         style="font-size:40px">?</flowPara></flowRoot>    <flowRoot
       xml:space="preserve"
       id="flowRoot4180-8-5-5"
       style="font-size:20px;font-style:normal;font-weight:normal;line-height:125%;letter-spacing:0px;word-spacing:0px;fill:#ffffff;fill-opacity:1;stroke:none;font-family:Sans"
       transform="translate(297.47825,305.12469)"><flowRegion
         id="flowRegion4182-8-1-2"><rect
           id="rect4184-2-7-7"
           width="95.714287"
           height="68.571426"
           x="47.142857"
           y="352.36218"
           style="fill:#ffffff;fill-opacity:1" /></flowRegion><flowPara
         id="flowPara4188-5-1-6"
         style="font-size:40px">?</flowPara></flowRoot>    <path
       style="fill:none;stroke:#000000;stroke-width:2;stroke-linecap:butt;stroke-linejoin:miter;stroke-miterlimit:4;stroke-opacity:1;stroke-dasharray:none;marker-end:url(#Arrow2Lend-4-7)"
       d="m 355.6306,242.6479 0,102.14303"
       id="path4279"
       inkscape:connector-curvature="0" />
    <text
       xml:space="preserve"
       style="font-size:20px;font-style:normal;font-weight:normal;line-height:125%;letter-spacing:0px;word-spacing:0px;fill:#000000;fill-opacity:1;stroke:none;font-family:Sans"
       x="364.15997"
       y="296.263"
       id="text4516"
       sodipodi:linespacing="125%"><tspan
         sodipodi:role="line"
         id="tspan4518"
         x="364.15997"
         y="296.263"
         style="font-size:30px">0.2</tspan></text>
    <path
       style="fill:none;stroke:#000000;stroke-width:2;stroke-linecap:butt;stroke-linejoin:miter;stroke-miterlimit:4;stroke-opacity:1;stroke-dasharray:none;marker-end:url(#Arrow2Lend-4-7)"
       d="m 113.85819,107.99288 0,102.14303"
       id="path4279-2"
       inkscape:connector-curvature="0" />
    <text
       xml:space="preserve"
       style="font-size:20px;font-style:normal;font-weight:normal;line-height:125%;letter-spacing:0px;word-spacing:0px;fill:#000000;fill-opacity:1;stroke:none;font-family:Sans"
       x="122.95581"
       y="161.60799"
       id="text4516-1"
       sodipodi:linespacing="125%"><tspan
         sodipodi:role="line"
         id="tspan4518-6"
         x="122.95581"
         y="161.60799"
         style="font-size:30px">0.8</tspan></text>
  </g>
</svg>
